<svg width="120" height="121" viewBox="0 0 120 121" fill="none" xmlns="http://www.w3.org/2000/svg">
<g clip-path="url(#clip0_22_7117)">
<path d="M117.61 120.01L98.96 118.46L83.36 120.89L76.61 117.51L51.18 120.89L23.56 118.84L9.85 120.89L0.46 120.24L1.76 104.33L4.09 88.56L0 68.67L4.29 50.58L2.7 38.84L2.63 13.6L0.83 0.87L15.06 3.21L29.53 1.5L59.22 5.58L78.81 0L88.53 2.95L101.23 0L119.8 2.71L118.44 19.34L116.58 29.61L118.44 52.22L116.39 65.03L118.44 85.1L116.2 102.55L117.61 120.01Z" fill="#F94517"/>
<path d="M19.77 46.24C19.2695 46.2416 18.7701 46.1914 18.28 46.09C17.84 46.0002 17.4084 45.8731 16.99 45.71C16.661 45.5861 16.3538 45.4106 16.08 45.19C15.9844 45.1218 15.9045 45.0338 15.8458 44.932C15.7872 44.8302 15.7511 44.717 15.74 44.6C15.7604 44.392 15.8252 44.1908 15.93 44.01C16.045 43.7697 16.1894 43.5446 16.36 43.34C16.5267 43.14 16.6766 43.04 16.81 43.04C16.9922 43.071 17.164 43.1465 17.31 43.26C17.5997 43.4398 17.9082 43.5874 18.23 43.7C18.6509 43.8465 19.0944 43.9176 19.54 43.91C20.0691 43.9465 20.5957 43.8096 21.04 43.52C21.2077 43.3962 21.3421 43.2328 21.4311 43.0443C21.5201 42.8558 21.5609 42.6482 21.55 42.44C21.5611 42.1289 21.4539 41.8252 21.25 41.59C21.0272 41.3399 20.7548 41.1389 20.45 41C20.0717 40.8234 19.6845 40.6666 19.29 40.53C18.93 40.38 18.55 40.22 18.16 40.04C17.7783 39.8527 17.4221 39.6175 17.1 39.34C16.7648 39.0469 16.5014 38.6809 16.33 38.27C16.1234 37.7591 16.0247 37.2109 16.04 36.66C16.026 35.9542 16.2171 35.2595 16.59 34.66C16.9545 34.0803 17.4789 33.6184 18.1 33.33C18.8024 33.0098 19.5682 32.8525 20.34 32.87C20.7412 32.8724 21.142 32.8992 21.54 32.95C21.9229 32.9918 22.3012 33.0688 22.67 33.18C22.9707 33.2645 23.2548 33.3998 23.51 33.58C23.6045 33.6343 23.684 33.711 23.7416 33.8035C23.7992 33.896 23.833 34.0013 23.84 34.11C23.8213 34.3241 23.7673 34.5336 23.68 34.73C23.5824 34.9742 23.4619 35.2086 23.32 35.43C23.18 35.63 23.05 35.73 22.92 35.73C22.6694 35.6719 22.4297 35.574 22.21 35.44C21.7285 35.2297 21.2048 35.1339 20.68 35.16C20.2278 35.1368 19.7789 35.2482 19.39 35.48C19.2252 35.5865 19.0925 35.7358 19.0062 35.912C18.9198 36.0882 18.8831 36.2845 18.9 36.48C18.8927 36.7361 18.9661 36.988 19.11 37.2C19.2836 37.4252 19.5104 37.6039 19.77 37.72C20.13 37.8994 20.5006 38.0564 20.88 38.19C21.3177 38.3426 21.7452 38.5229 22.16 38.73C22.5711 38.9292 22.9544 39.1813 23.3 39.48C23.6482 39.7878 23.9218 40.1708 24.1 40.6C24.2985 41.106 24.3938 41.6466 24.38 42.19C24.3992 42.9292 24.2035 43.6582 23.8165 44.2883C23.4295 44.9185 22.868 45.4228 22.2 45.74C21.4419 46.1013 20.6095 46.2794 19.77 46.26" fill="white"/>
<path d="M29.2701 38.42H34.7101C34.7681 37.5575 34.5319 36.7009 34.0401 35.99C33.8028 35.7118 33.5038 35.4928 33.1671 35.3505C32.8303 35.2081 32.4649 35.1463 32.1 35.17C31.6026 35.163 31.1112 35.2798 30.6701 35.51C30.2427 35.7338 29.8939 36.0827 29.6701 36.51C29.3985 37.092 29.2618 37.7278 29.2701 38.37M32.5501 46.14C31.705 46.2057 30.8555 46.0938 30.0564 45.8113C29.2572 45.5289 28.5261 45.0822 27.91 44.5C26.7698 43.095 26.2178 41.3031 26.37 39.5C26.3247 38.2053 26.5707 36.9169 27.09 35.73C27.5178 34.7869 28.2362 34.0054 29.1401 33.5C30.1084 32.9956 31.1885 32.7445 32.28 32.77C33.3407 32.7145 34.3915 32.9982 35.28 33.58C36.0618 34.1316 36.6552 34.9101 36.9801 35.81C37.3675 36.873 37.554 37.9988 37.53 39.13C37.5217 39.3357 37.4596 39.5357 37.35 39.71C37.2431 39.9105 37.0969 40.0873 36.9201 40.23C36.7803 40.3582 36.5996 40.4327 36.41 40.44H29.34C29.3093 40.9085 29.3751 41.3784 29.5334 41.8205C29.6916 42.2625 29.939 42.6674 30.2601 43.01C30.943 43.5666 31.8107 43.8451 32.69 43.79C33.2906 43.8054 33.8893 43.7175 34.4601 43.53C34.8841 43.3961 35.2956 43.2254 35.69 43.02C35.8904 42.8993 36.1104 42.8147 36.34 42.77C36.49 42.77 36.62 42.87 36.75 43.06C36.8784 43.2653 36.9856 43.4831 37.0701 43.71C37.1492 43.894 37.1966 44.0901 37.2101 44.29C37.2101 44.49 37.06 44.69 36.78 44.9C36.4357 45.1357 36.0669 45.3335 35.6801 45.49C35.199 45.6874 34.7 45.8381 34.19 45.94C33.6634 46.0469 33.1274 46.1005 32.59 46.1" fill="white"/>
<path d="M45.5099 46.24C44.6882 46.3051 43.8619 46.2002 43.0825 45.9318C42.3031 45.6634 41.5874 45.2373 40.9799 44.68C39.9866 43.64 39.4933 41.9733 39.4999 39.68C39.376 37.8849 39.9131 36.1065 41.0099 34.68C41.6011 34.069 42.32 33.5962 43.1153 33.2954C43.9105 32.9946 44.7624 32.8732 45.6099 32.94C46.083 32.9377 46.5553 32.9812 47.0199 33.07C47.4536 33.1403 47.8791 33.2542 48.2899 33.41C48.613 33.5268 48.9165 33.692 49.1899 33.9C49.2846 33.955 49.3648 34.0318 49.4239 34.124C49.483 34.2161 49.5194 34.321 49.5299 34.43C49.5218 34.6296 49.4778 34.8261 49.4 35.01C49.3219 35.2427 49.2143 35.4645 49.0799 35.67C49.0413 35.7516 48.9824 35.8221 48.9089 35.8746C48.8354 35.9271 48.7497 35.9599 48.6599 35.97C48.4459 35.9483 48.2384 35.8837 48.0499 35.78C47.7244 35.6393 47.3904 35.5191 47.0499 35.42C46.5627 35.2993 46.0618 35.2422 45.5599 35.25C45.1113 35.2168 44.6616 35.2975 44.2526 35.4845C43.8435 35.6716 43.4883 35.959 43.2199 36.32C42.7195 37.3481 42.4594 38.4766 42.4594 39.62C42.4594 40.7634 42.7195 41.8919 43.2199 42.92C43.5127 43.2749 43.8886 43.552 44.3144 43.7265C44.7401 43.9009 45.2023 43.9674 45.6599 43.92C46.1686 43.9294 46.6754 43.8551 47.1599 43.7C47.5372 43.5761 47.9077 43.4326 48.2699 43.27C48.4655 43.1527 48.6836 43.0777 48.9099 43.05C49.0599 43.05 49.1899 43.15 49.3099 43.34C49.4307 43.5438 49.5248 43.7623 49.5899 43.99C49.6597 44.176 49.7002 44.3716 49.71 44.57C49.71 44.77 49.5699 44.96 49.3099 45.16C49.0026 45.3845 48.6662 45.5661 48.3099 45.7C47.8715 45.8647 47.4199 45.9918 46.96 46.08C46.4995 46.1769 46.0304 46.2272 45.5599 46.23" fill="white"/>
<path d="M53.55 46.07C53.2065 46.1024 52.8607 46.0402 52.55 45.89C52.4619 45.843 52.3889 45.7721 52.3394 45.6854C52.2898 45.5987 52.2658 45.4998 52.27 45.4V37.03C52.2772 36.4625 52.2538 35.895 52.2 35.33C52.2 34.89 52.12 34.55 52.08 34.33C52.0461 34.1417 52.0261 33.9512 52.02 33.76C52.0253 33.6867 52.0518 33.6165 52.0961 33.558C52.1405 33.4994 52.2009 33.455 52.27 33.43C52.4528 33.3237 52.6523 33.2493 52.86 33.21C53.091 33.162 53.3248 33.1286 53.56 33.11H54.1C54.179 33.1035 54.2585 33.1144 54.3329 33.1421C54.4072 33.1697 54.4745 33.2134 54.53 33.27C54.6498 33.4358 54.738 33.6222 54.79 33.82C54.8854 34.1825 54.9621 34.5497 55.02 34.92C55.2071 34.5122 55.4682 34.1426 55.79 33.83C56.0783 33.5433 56.4174 33.3127 56.79 33.15C57.16 32.9924 57.5579 32.9108 57.96 32.91C58.1012 32.8915 58.2447 32.9033 58.3809 32.9447C58.5172 32.9861 58.643 33.0561 58.75 33.15C58.913 33.3456 58.9952 33.5959 58.98 33.85C58.9746 34.0441 58.9579 34.2378 58.93 34.43C58.8978 34.6594 58.851 34.8865 58.79 35.11C58.7406 35.3037 58.6702 35.4915 58.58 35.67C58.5533 35.7334 58.5089 35.7879 58.4522 35.8269C58.3955 35.8659 58.3288 35.8878 58.26 35.89C58.1044 35.8824 57.9516 35.8451 57.81 35.78C57.574 35.691 57.3217 35.6535 57.07 35.67C56.6421 35.6627 56.2215 35.7809 55.86 36.01C55.5131 36.2365 55.2498 36.5701 55.11 36.96V45.45C55.1112 45.5516 55.0836 45.6515 55.0306 45.7382C54.9775 45.8249 54.901 45.8948 54.81 45.94C54.4977 46.0851 54.1533 46.1471 53.81 46.12L53.55 46.07Z" fill="white"/>
<path d="M63.01 38.42H68.45C68.5081 37.5575 68.2719 36.7009 67.78 35.99C67.5422 35.7124 67.2432 35.4939 66.9066 35.3516C66.5699 35.2093 66.2048 35.1471 65.84 35.17C65.3422 35.16 64.8501 35.277 64.41 35.51C63.9827 35.7338 63.6338 36.0827 63.41 36.51C63.1385 37.092 63.0018 37.7278 63.01 38.37M66.31 46.24C65.4635 46.3047 64.6129 46.1923 63.8122 45.9099C63.0116 45.6275 62.2786 45.1814 61.66 44.6C60.5233 43.1935 59.975 41.4017 60.13 39.6C60.0847 38.3053 60.3307 37.0169 60.85 35.83C61.2664 34.8954 61.9661 34.1153 62.85 33.6C63.8192 33.0981 64.8988 32.8471 65.99 32.87C67.0502 32.8187 68.0998 33.102 68.99 33.68C69.7718 34.2317 70.3652 35.0101 70.69 35.91C71.0726 36.9743 71.259 38.0992 71.24 39.23C71.2317 39.4357 71.1696 39.6357 71.06 39.81C70.9531 40.0105 70.8069 40.1873 70.63 40.33C70.4881 40.4547 70.3086 40.5286 70.12 40.54H63.01C62.9817 41.0083 63.0486 41.4775 63.2067 41.9193C63.3648 42.361 63.6109 42.7661 63.93 43.11C64.6165 43.6672 65.4876 43.9457 66.37 43.89C66.9705 43.9046 67.5691 43.8167 68.14 43.63C68.5627 43.4924 68.974 43.3219 69.37 43.12C69.5667 42.9991 69.7835 42.9144 70.01 42.87C70.0976 42.8789 70.1813 42.9102 70.2532 42.961C70.325 43.0119 70.3825 43.0804 70.42 43.16C70.556 43.3625 70.6669 43.5807 70.75 43.81C70.8269 43.9943 70.8709 44.1906 70.88 44.39C70.88 44.59 70.74 44.79 70.46 45C70.1157 45.2357 69.7469 45.4335 69.36 45.59C68.8785 45.7861 68.3796 45.9367 67.87 46.04C67.3434 46.1469 66.8074 46.2006 66.27 46.2" fill="white"/>
<path d="M77.9 46.24C77.2723 46.2646 76.6489 46.1269 76.09 45.84C75.6069 45.5787 75.2211 45.1683 74.99 44.67C74.7303 44.0605 74.6041 43.4024 74.62 42.74V35.34H73.62C73.21 35.34 73 35.02 73 34.34V33.96C73 33.32 73.21 32.96 73.62 32.96H74.62L74.97 30.47C75.0027 30.266 75.114 30.0829 75.28 29.96C75.4972 29.8417 75.7431 29.7863 75.99 29.8H76.46C76.7394 29.7811 77.0188 29.8363 77.27 29.96C77.3476 30.0193 77.4092 30.097 77.4493 30.186C77.4895 30.275 77.5069 30.3726 77.5 30.47V32.96H79.34C79.75 32.96 79.96 33.28 79.96 33.96V34.34C79.96 34.98 79.75 35.34 79.34 35.34H77.5V42.59C77.4597 42.9412 77.5447 43.2954 77.74 43.59C77.84 43.6932 77.9623 43.7721 78.0975 43.8206C78.2327 43.8691 78.3773 43.886 78.52 43.87C78.7791 43.8859 79.0384 43.8449 79.28 43.75C79.4051 43.6777 79.5457 43.6365 79.69 43.63C79.78 43.63 79.87 43.7 79.93 43.84C80.0033 43.9971 80.0602 44.1613 80.1 44.33C80.1399 44.5112 80.1667 44.695 80.18 44.88C80.1866 45.0066 80.1866 45.1334 80.18 45.26C80.18 45.45 80.05 45.61 79.8 45.76C79.5191 45.9208 79.2158 46.0388 78.9 46.11C78.5719 46.1855 78.2367 46.2257 77.9 46.23" fill="white"/>
<path d="M87.5799 43.88C88.0123 43.9116 88.4454 43.8283 88.8352 43.6386C89.2251 43.449 89.5579 43.1597 89.7999 42.8C90.3401 41.8023 90.5862 40.6719 90.5099 39.54C90.5859 38.3985 90.34 37.2586 89.7999 36.25C89.5382 35.9135 89.203 35.6412 88.82 35.4539C88.437 35.2666 88.0163 35.1693 87.5899 35.1693C87.1636 35.1693 86.7429 35.2666 86.3599 35.4539C85.9769 35.6412 85.6417 35.9135 85.3799 36.25C84.8399 37.2586 84.5939 38.3985 84.6699 39.54C84.5936 40.6719 84.8398 41.8023 85.3799 42.8C85.6195 43.1573 85.949 43.4453 86.3352 43.6349C86.7214 43.8244 87.1507 43.909 87.5799 43.88ZM87.6299 46.19C86.819 46.245 86.0059 46.1203 85.2488 45.8247C84.4916 45.5291 83.8091 45.0699 83.2499 44.48C82.1646 43.0789 81.6309 41.3283 81.7499 39.56C81.6203 37.7643 82.158 35.9839 83.2599 34.56C83.8157 33.9673 84.4957 33.5048 85.2512 33.2057C86.0067 32.9066 86.819 32.7783 87.6299 32.83C88.4333 32.7795 89.2378 32.9085 89.9851 33.2078C90.7323 33.507 91.4035 33.969 91.9499 34.56C93.0363 35.9909 93.5658 37.7678 93.4399 39.56C93.5606 41.3284 93.0347 43.0805 91.9599 44.49C91.4105 45.0781 90.7366 45.536 89.9874 45.8301C89.2382 46.1243 88.4327 46.2472 87.6299 46.19Z" fill="white"/>
<path d="M99.52 46.24C99.0195 46.2416 98.5201 46.1914 98.03 46.09C97.59 46.0002 97.1585 45.8731 96.74 45.71C96.4121 45.5838 96.1053 45.4084 95.83 45.19C95.7353 45.1217 95.6566 45.0335 95.5996 44.9316C95.5426 44.8297 95.5086 44.7165 95.5 44.6C95.516 44.3925 95.5775 44.1911 95.68 44.01C95.7984 43.7693 95.9462 43.5443 96.12 43.34C96.28 43.14 96.43 43.04 96.56 43.04C96.7423 43.071 96.914 43.1465 97.06 43.26C97.3497 43.4398 97.6582 43.5874 97.98 43.7C98.4009 43.8465 98.8444 43.9176 99.29 43.91C99.8224 43.948 100.353 43.811 100.8 43.52C100.965 43.3939 101.096 43.2298 101.183 43.0417C101.27 42.8535 101.31 42.6471 101.3 42.44C101.315 42.1301 101.211 41.8262 101.01 41.59C100.781 41.3421 100.506 41.1416 100.2 41C99.8252 40.8234 99.4413 40.6665 99.05 40.53C98.68 40.38 98.31 40.22 97.92 40.04C97.5338 39.8552 97.174 39.6198 96.85 39.34C96.5172 39.0448 96.2542 38.6794 96.08 38.27C95.8735 37.7591 95.7747 37.2109 95.79 36.66C95.7811 35.9548 95.9718 35.2615 96.34 34.66C96.7045 34.0803 97.2289 33.6184 97.85 33.33C98.5524 33.0098 99.3182 32.8525 100.09 32.87C100.491 32.8718 100.892 32.8985 101.29 32.95C101.673 32.9918 102.051 33.0688 102.42 33.18C102.723 33.2668 103.01 33.4018 103.27 33.58C103.362 33.6361 103.439 33.7136 103.495 33.8058C103.551 33.8981 103.583 34.0024 103.59 34.11C103.571 34.3241 103.517 34.5336 103.43 34.73C103.332 34.9742 103.212 35.2086 103.07 35.43C102.93 35.63 102.8 35.73 102.67 35.73C102.419 35.6719 102.18 35.574 101.96 35.44C101.482 35.2305 100.961 35.1347 100.44 35.16C99.9878 35.1368 99.5389 35.2482 99.15 35.48C98.9826 35.5844 98.8472 35.733 98.759 35.9095C98.6708 36.086 98.6331 36.2834 98.65 36.48C98.6427 36.7361 98.7162 36.988 98.86 37.2C99.0336 37.4252 99.2604 37.6039 99.52 37.72C99.8808 37.8976 100.251 38.0545 100.63 38.19C101.068 38.3426 101.495 38.5229 101.91 38.73C102.322 38.9267 102.706 39.1791 103.05 39.48C103.398 39.7878 103.672 40.1708 103.85 40.6C104.049 41.106 104.144 41.6466 104.13 42.19C104.149 42.9292 103.953 43.6582 103.567 44.2883C103.18 44.9185 102.618 45.4228 101.95 45.74C101.192 46.1013 100.36 46.2794 99.52 46.26" fill="white"/>
<path d="M42.34 64.91C42.7451 64.9242 43.1463 64.8262 43.4992 64.6268C43.8522 64.4274 44.1431 64.1343 44.34 63.78C44.8577 62.7819 45.0961 61.6625 45.03 60.54C45.1065 59.4272 44.86 58.316 44.32 57.34C44.0999 57.0163 43.8005 56.7544 43.4504 56.5793C43.1002 56.4042 42.7111 56.3219 42.32 56.34C41.8114 56.3414 41.3131 56.4833 40.88 56.75C40.4195 57.0326 40.0158 57.3989 39.69 57.83V63.83C40.058 64.1665 40.4764 64.4432 40.9301 64.65C41.369 64.8398 41.8418 64.9385 42.32 64.94M38.01 72.24C37.6908 72.2609 37.3713 72.2025 37.08 72.07C36.9908 72.0209 36.9166 71.9484 36.8655 71.8603C36.8144 71.7722 36.7883 71.6718 36.79 71.57V58.09C36.79 57.39 36.79 56.83 36.73 56.39C36.7034 56.0547 36.66 55.721 36.6 55.39C36.5662 55.2017 36.5461 55.0112 36.54 54.82C36.5434 54.745 36.569 54.6726 36.6135 54.6121C36.658 54.5516 36.7194 54.5056 36.79 54.48C36.9824 54.3816 37.1878 54.3109 37.4001 54.27C37.6344 54.222 37.8715 54.1886 38.11 54.17C38.34 54.17 38.5201 54.17 38.6501 54.17C38.7204 54.1646 38.7912 54.1733 38.8582 54.1957C38.9251 54.218 38.987 54.2535 39.04 54.3C39.1541 54.4355 39.2331 54.5969 39.2701 54.77C39.34 55 39.41 55.32 39.5 55.77C39.7769 55.3846 40.1146 55.0468 40.5 54.77C40.8843 54.5172 41.3015 54.3187 41.7401 54.18C42.19 54.0398 42.6587 53.969 43.13 53.97C44.0445 53.941 44.9433 54.2114 45.69 54.74C46.4446 55.3077 47.0178 56.0824 47.34 56.97C47.7628 58.1288 47.963 59.357 47.9301 60.59C47.9544 61.781 47.7508 62.9656 47.33 64.08C46.9844 65.0124 46.3852 65.8298 45.6 66.44C44.8189 67.0228 43.8643 67.3258 42.89 67.3C42.4709 67.3003 42.0537 67.2432 41.6501 67.13C41.2644 67.0355 40.8917 66.8945 40.54 66.71C40.2228 66.5556 39.927 66.3607 39.66 66.13V71.59C39.6617 71.6918 39.6356 71.7922 39.5845 71.8803C39.5334 71.9684 39.4593 72.0409 39.37 72.09C39.0788 72.2225 38.7593 72.2809 38.44 72.26L38.01 72.24Z" fill="white"/>
<path d="M54.9301 64.91C55.3602 64.917 55.7877 64.8424 56.19 64.69C56.5514 64.541 56.8885 64.3388 57.19 64.09C57.5063 63.8515 57.7831 63.5647 58.01 63.24V61.06C57.2383 61.0519 56.4668 61.0919 55.7 61.18C55.1973 61.24 54.7057 61.3713 54.2401 61.57C53.9157 61.711 53.6456 61.953 53.47 62.26C53.3201 62.5718 53.2448 62.9141 53.25 63.26C53.2373 63.4733 53.268 63.6869 53.3402 63.888C53.4123 64.0891 53.5246 64.2735 53.6701 64.43C53.843 64.5813 54.0444 64.6964 54.2625 64.7685C54.4807 64.8407 54.711 64.8684 54.94 64.85M54.31 67.19C53.2373 67.2518 52.1826 66.8931 51.37 66.19C51.026 65.8333 50.7596 65.4093 50.5875 64.9446C50.4154 64.48 50.3414 63.9847 50.37 63.49C50.3584 62.8503 50.474 62.2147 50.7101 61.62C50.9504 61.0327 51.3615 60.5311 51.8901 60.18C52.5965 59.7099 53.3936 59.393 54.23 59.25C55.4854 59.0105 56.7624 58.9033 58.04 58.93V57.93C58.0591 57.5829 57.983 57.2371 57.82 56.93C57.6483 56.6491 57.3931 56.4288 57.09 56.3C56.6585 56.1263 56.1947 56.0479 55.73 56.07C55.1195 56.0605 54.5105 56.1345 53.9201 56.29C53.477 56.4102 53.0426 56.5605 52.62 56.74C52.396 56.8493 52.1566 56.9235 51.91 56.96C51.8536 56.9543 51.7992 56.9361 51.7508 56.9067C51.7024 56.8773 51.6611 56.8374 51.63 56.79C51.5268 56.6502 51.4396 56.4993 51.37 56.34C51.2846 56.1651 51.2209 55.9804 51.1801 55.79C51.1449 55.6458 51.1248 55.4984 51.12 55.35C51.12 55.16 51.26 54.99 51.54 54.81C51.896 54.6042 52.2711 54.4334 52.66 54.3C53.1655 54.1289 53.6838 53.9984 54.2101 53.91C54.7713 53.8109 55.3401 53.7607 55.91 53.76C56.6596 53.7466 57.4073 53.8409 58.13 54.04C58.7031 54.1976 59.2353 54.4773 59.69 54.86C60.0891 55.2081 60.4037 55.6424 60.6101 56.13C60.8247 56.6531 60.9302 57.2146 60.9201 57.78V62.89C60.9201 63.65 60.94 64.25 60.98 64.69C61.03 65.13 61.07 65.46 61.12 65.69C61.1659 65.8768 61.1927 66.0678 61.2 66.26C61.2 66.3733 61.1201 66.4733 60.9601 66.56C60.7753 66.6471 60.5805 66.7109 60.38 66.75L59.6801 66.87H59.1101C59.0235 66.8753 58.937 66.8589 58.8584 66.8222C58.7798 66.7855 58.7116 66.7298 58.66 66.66C58.5408 66.4744 58.4592 66.2671 58.4201 66.05C58.3501 65.79 58.28 65.49 58.22 65.16C57.9787 65.4478 57.7109 65.7123 57.4201 65.95C57.0337 66.2736 56.5982 66.5335 56.13 66.72C55.5621 66.9508 54.9529 67.0631 54.34 67.05" fill="white"/>
<path d="M65.9499 67.12C65.6075 67.1502 65.2631 67.0917 64.9499 66.95C64.8607 66.9009 64.7865 66.8284 64.7354 66.7403C64.6843 66.6522 64.6582 66.5518 64.6599 66.45V58.09C64.6599 57.39 64.6599 56.83 64.5999 56.39C64.5399 55.95 64.5199 55.6 64.4799 55.39C64.446 55.2017 64.426 55.0112 64.4199 54.82C64.4237 54.7465 64.4483 54.6755 64.4908 54.6153C64.5333 54.5551 64.5919 54.5082 64.6599 54.48C64.8494 54.383 65.0513 54.3124 65.2599 54.27C65.4908 54.2213 65.7247 54.1879 65.9599 54.17C66.1899 54.17 66.3699 54.17 66.4999 54.17C66.5773 54.1649 66.6549 54.1766 66.7274 54.2042C66.7998 54.2319 66.8655 54.2747 66.9199 54.33C67.046 54.4882 67.1348 54.6728 67.1799 54.87C67.283 55.2346 67.3632 55.6054 67.4199 55.98C67.78 55.1816 68.4256 54.5467 69.2299 54.2C69.6019 54.05 69.9989 53.972 70.3999 53.97C70.6831 53.9416 70.9662 54.024 71.1899 54.2C71.3553 54.3981 71.4378 54.6525 71.4199 54.91C71.4148 55.1008 71.3981 55.2912 71.3699 55.48C71.3699 55.71 71.2899 55.94 71.2299 56.16C71.1822 56.3543 71.1117 56.5423 71.0199 56.72C70.9937 56.7846 70.9497 56.8405 70.8931 56.8812C70.8365 56.9218 70.7695 56.9457 70.6999 56.95C70.5426 56.946 70.3884 56.9049 70.2499 56.83C70.0092 56.7459 69.7546 56.7085 69.4999 56.72C69.0744 56.7176 68.6574 56.8392 68.2999 57.07C67.951 57.2923 67.6842 57.6223 67.5399 58.01V66.5C67.5416 66.6018 67.5155 66.7022 67.4644 66.7903C67.4133 66.8784 67.3391 66.9509 67.2499 67C66.9351 67.1364 66.5921 67.1947 66.2499 67.17L65.9499 67.12Z" fill="white"/>
<path d="M77.0101 64.91C77.4435 64.9178 77.8745 64.8432 78.2801 64.69C78.6415 64.541 78.9785 64.3388 79.2801 64.09C79.5749 63.8521 79.8372 63.5764 80.0601 63.27V61.09C79.2883 61.0813 78.5168 61.1214 77.7501 61.21C77.2474 61.27 76.7558 61.4013 76.2901 61.6C75.9637 61.7378 75.6927 61.9807 75.5201 62.29C75.3667 62.6009 75.288 62.9433 75.2901 63.29C75.2769 63.5042 75.3083 63.7187 75.3823 63.9201C75.4563 64.1215 75.5713 64.3054 75.7201 64.46C75.8915 64.6105 76.0912 64.7252 76.3076 64.7973C76.524 64.8695 76.7527 64.8976 76.9801 64.88M76.3601 67.22C75.2873 67.2818 74.2327 66.9231 73.4201 66.22C73.0746 65.8644 72.8071 65.4406 72.6349 64.9756C72.4627 64.5107 72.3896 64.0149 72.4201 63.52C72.4084 62.8803 72.524 62.2447 72.7601 61.65C73.0263 61.0655 73.4617 60.5744 74.0101 60.24C74.7211 59.7717 75.5211 59.4551 76.3601 59.31C77.6154 59.0705 78.8924 58.9633 80.1701 58.99V57.99C80.1891 57.6429 80.1131 57.2971 79.9501 56.99C79.7742 56.7088 79.5158 56.4888 79.2101 56.36C78.7821 56.1862 78.3214 56.1077 77.8601 56.13C77.2495 56.1199 76.6405 56.1939 76.0501 56.35C75.607 56.4702 75.1726 56.6205 74.7501 56.8C74.5261 56.9093 74.2866 56.9835 74.0401 57.02C73.9821 57.0151 73.926 56.9973 73.8758 56.9679C73.8257 56.9384 73.7827 56.8982 73.7501 56.85C73.6506 56.7078 73.5636 56.5572 73.4901 56.4C73.4122 56.223 73.3518 56.0388 73.3101 55.85C73.2725 55.706 73.2491 55.5586 73.2401 55.41C73.2401 55.22 73.3901 55.05 73.6701 54.87C74.0234 54.6659 74.395 54.4952 74.7801 54.36C75.2889 54.189 75.8106 54.0585 76.3401 53.97C76.9013 53.8705 77.4701 53.8203 78.0401 53.82C78.7897 53.8066 79.5373 53.9009 80.2601 54.1C80.8322 54.2599 81.3639 54.5394 81.8201 54.92C82.2191 55.2681 82.5337 55.7024 82.7401 56.19C82.9548 56.7131 83.0602 57.2746 83.0501 57.84V62.95C83.0501 63.71 83.0701 64.31 83.1101 64.75C83.1382 65.0857 83.1849 65.4195 83.2501 65.75C83.2934 65.937 83.3168 66.1281 83.3201 66.32C83.3201 66.43 83.2401 66.53 83.0901 66.62C82.9024 66.7085 82.7041 66.7723 82.5001 66.81L81.8101 66.93H81.2401C81.1535 66.9353 81.067 66.9189 80.9884 66.8822C80.9098 66.8455 80.8416 66.7898 80.7901 66.72C80.6713 66.5331 80.5866 66.3265 80.5401 66.11C80.4801 65.85 80.4101 65.55 80.3401 65.22C80.1053 65.5104 79.8405 65.7752 79.5501 66.01C79.1638 66.3336 78.7283 66.5935 78.2601 66.78C77.6921 67.0108 77.083 67.1231 76.4701 67.11" fill="white"/>
<path d="M31.5799 91.47C30.7582 91.5351 29.9319 91.4302 29.1525 91.1618C28.3731 90.8934 27.6573 90.4673 27.0499 89.91C26.0499 88.91 25.5699 87.18 25.5699 84.91C25.4488 83.1136 25.9895 81.335 27.0899 79.91C27.6796 79.2998 28.3968 78.8274 29.1903 78.5266C29.9838 78.2258 30.8339 78.104 31.6799 78.17C32.1563 78.1681 32.6318 78.2117 33.0999 78.3C33.5304 78.3703 33.9525 78.4842 34.3599 78.64C34.685 78.7592 34.9914 78.9242 35.2699 79.13C35.3622 79.1868 35.44 79.2642 35.4973 79.3562C35.5545 79.4481 35.5897 79.5521 35.5999 79.66C35.5902 79.8584 35.5497 80.054 35.4799 80.24C35.4018 80.4727 35.2943 80.6945 35.1599 80.9C35.0199 81.1 34.8799 81.2 34.7299 81.2C34.5191 81.1781 34.3149 81.1134 34.1299 81.01C33.8038 80.8708 33.4699 80.7506 33.1299 80.65C32.6425 80.53 32.1418 80.4728 31.6399 80.48C31.19 80.4479 30.7392 80.5289 30.3287 80.7159C29.9182 80.9028 29.5611 81.1895 29.2899 81.55C28.7895 82.5781 28.5294 83.7066 28.5294 84.85C28.5294 85.9934 28.7895 87.1219 29.2899 88.15C29.5865 88.503 29.9645 88.7786 30.3913 88.9528C30.8182 89.127 31.2811 89.1947 31.7399 89.15C32.2486 89.1594 32.7554 89.0851 33.2399 88.93C33.6143 88.8034 33.9815 88.6565 34.3399 88.49C34.541 88.3787 34.7617 88.3074 34.9899 88.28C35.0752 88.2882 35.1566 88.3196 35.2253 88.3707C35.294 88.4218 35.3475 88.4907 35.3799 88.57C35.5062 88.7686 35.6039 88.9841 35.6699 89.21C35.7325 89.4009 35.7695 89.5993 35.7799 89.8C35.7799 90 35.6499 90.19 35.3799 90.39C35.0731 90.6153 34.7366 90.7971 34.3799 90.93C33.9362 91.0888 33.4817 91.2158 33.0199 91.31C32.5596 91.4078 32.0905 91.458 31.6199 91.46" fill="white"/>
<path d="M43.4499 89.16C43.8822 89.1905 44.3149 89.1068 44.7045 88.9172C45.0942 88.7277 45.4271 88.4389 45.6699 88.08C46.204 87.0803 46.4465 85.9508 46.3699 84.82C46.4484 83.6795 46.206 82.5398 45.6699 81.53C45.4271 81.1711 45.0942 80.8823 44.7045 80.6927C44.3149 80.5032 43.8822 80.4195 43.4499 80.45C43.0205 80.42 42.5909 80.5041 42.2045 80.6937C41.8181 80.8834 41.4888 81.1719 41.2499 81.53C40.7099 82.5386 40.4639 83.6785 40.5399 84.82C40.4636 85.9519 40.7098 87.0823 41.2499 88.08C41.4888 88.4381 41.8181 88.7266 42.2045 88.9163C42.5909 89.1059 43.0205 89.19 43.4499 89.16ZM43.4999 91.47C42.6875 91.5244 41.8731 91.3995 41.1145 91.1039C40.3558 90.8084 39.6714 90.3496 39.1099 89.76C38.0246 88.3589 37.4909 86.6083 37.6099 84.84C37.4832 83.043 38.0244 81.2624 39.1299 79.84C39.6853 79.2467 40.3652 78.7838 41.1208 78.4847C41.8764 78.1856 42.6889 78.0576 43.4999 78.11C44.3019 78.0581 45.1054 78.1866 45.8512 78.486C46.597 78.7854 47.2663 79.248 47.8099 79.84C48.7777 81.3095 49.2934 83.0305 49.2934 84.79C49.2934 86.5495 48.7777 88.2705 47.8099 89.74C47.2583 90.3253 46.584 90.7813 45.8354 91.0752C45.0868 91.3691 44.2824 91.4937 43.4799 91.44" fill="white"/>
<path d="M53.5999 91.35C53.2794 91.3736 52.9584 91.3115 52.6699 91.17C52.5807 91.1234 52.5063 91.0529 52.455 90.9663C52.4038 90.8797 52.3778 90.7806 52.3799 90.68V82.31C52.3799 81.62 52.3799 81.05 52.3199 80.61C52.2599 80.17 52.2399 79.83 52.1999 79.61C52.1587 79.4226 52.1353 79.2318 52.1299 79.04C52.1375 78.9674 52.1648 78.8983 52.2089 78.8401C52.2529 78.782 52.3121 78.737 52.3799 78.71C52.5699 78.604 52.776 78.5297 52.9899 78.49C53.2243 78.442 53.4614 78.4086 53.6999 78.39H54.2399C54.3119 78.3854 54.384 78.3964 54.4513 78.4223C54.5186 78.4482 54.5795 78.4883 54.6299 78.54C54.7449 78.6925 54.8298 78.8656 54.8799 79.05C54.9735 79.3792 55.0502 79.713 55.1099 80.05C55.3883 79.6659 55.7258 79.3284 56.1099 79.05C56.5093 78.772 56.9428 78.5468 57.3999 78.38C57.8612 78.2115 58.3488 78.1268 58.8399 78.13C59.5771 78.104 60.3091 78.2621 60.9699 78.59C61.5404 78.8907 62.0021 79.3629 62.2899 79.94C62.609 80.6319 62.763 81.3884 62.7399 82.15V90.67C62.742 90.7706 62.7159 90.8697 62.6647 90.9563C62.6135 91.0429 62.5391 91.1134 62.4499 91.16C62.1545 91.3022 61.8268 91.3643 61.4999 91.34H61.0699C60.7429 91.3643 60.4153 91.3022 60.1199 91.16C60.0307 91.1134 59.9563 91.0429 59.9051 90.9563C59.8538 90.8697 59.8278 90.7706 59.8299 90.67V82.52C59.8663 81.9833 59.6944 81.4532 59.3499 81.04C59.1515 80.8507 58.9153 80.7055 58.6567 80.6142C58.3982 80.5228 58.1232 80.4873 57.8499 80.51C57.5068 80.5118 57.1673 80.5797 56.8499 80.71C56.5235 80.8506 56.2202 81.0393 55.9499 81.27C55.6689 81.5027 55.4319 81.7838 55.2499 82.1V90.67C55.2541 90.7697 55.2301 90.8687 55.1805 90.9554C55.131 91.042 55.058 91.113 54.9699 91.16C54.6773 91.3001 54.3535 91.3621 54.0299 91.34L53.5999 91.35Z" fill="white"/>
<path d="M69.9501 91.47C69.3225 91.4937 68.6992 91.356 68.1401 91.07C67.6573 90.8067 67.2743 90.3921 67.0501 89.89C66.7846 89.2857 66.6582 88.6296 66.6801 87.97V80.62H65.6801C65.2701 80.62 65.0601 80.3 65.0601 79.62V79.24C65.0601 78.6 65.2701 78.24 65.6801 78.24H66.6801L67.0301 75.76C67.0627 75.556 67.174 75.3729 67.3401 75.25C67.5535 75.1315 67.7963 75.076 68.0401 75.09H68.5101C68.7895 75.0701 69.0692 75.1253 69.3201 75.25C69.4001 75.3076 69.4642 75.3846 69.5062 75.4739C69.5482 75.5631 69.5667 75.6616 69.5601 75.76V78.24H71.3901C71.8101 78.24 72.0101 78.57 72.0101 79.24V79.62C72.0101 80.26 71.8101 80.62 71.3901 80.62H69.5601V87.87C69.5226 88.2197 69.6036 88.5718 69.7901 88.87C69.8925 88.9697 70.0151 89.0463 70.1497 89.0946C70.2842 89.1429 70.4276 89.1618 70.5701 89.15C70.8291 89.1659 71.0885 89.1249 71.3301 89.03C71.4557 88.9574 71.5956 88.9131 71.7401 88.9C71.8401 88.9 71.9201 88.97 71.9901 89.12C72.0643 89.2757 72.1181 89.4404 72.1501 89.61C72.1501 89.8 72.2201 89.98 72.2401 90.16C72.2601 90.34 72.2401 90.46 72.2401 90.54C72.2401 90.62 72.1201 90.89 71.8701 91.04C71.5856 91.2008 71.279 91.3187 70.9601 91.39C70.6322 91.4665 70.2968 91.5068 69.9601 91.51" fill="white"/>
<path d="M78.5701 89.14C79.0009 89.1438 79.4285 89.0658 79.8301 88.91C80.1922 88.7667 80.5296 88.5677 80.8301 88.32C81.1282 88.0824 81.3937 87.8067 81.6201 87.5V85.31C80.8481 85.3039 80.0765 85.3473 79.3101 85.44C78.8039 85.4926 78.3084 85.6207 77.8401 85.82C77.515 85.9648 77.2451 86.2102 77.0701 86.52C76.9191 86.8314 76.8438 87.174 76.8501 87.52C76.8385 87.7332 76.8697 87.9465 76.9418 88.1475C77.014 88.3484 77.1256 88.5329 77.2701 88.69C77.443 88.8413 77.6445 88.9564 77.8626 89.0285C78.0807 89.1006 78.3111 89.1284 78.5401 89.11M77.9201 91.44C76.8467 91.5061 75.7905 91.1469 74.9801 90.44C74.6338 90.087 74.3658 89.665 74.1935 89.2015C74.0212 88.738 73.9485 88.2435 73.9801 87.75C73.9703 87.1081 74.0823 86.4702 74.3101 85.87C74.559 85.2879 74.9682 84.7885 75.4901 84.43C76.2009 83.9683 76.9963 83.6522 77.8301 83.5C79.0896 83.266 80.3693 83.1588 81.6501 83.18V82.18C81.6573 81.8519 81.5779 81.5277 81.4201 81.24C81.2539 80.9544 80.9969 80.7326 80.6901 80.61C80.2627 80.4334 79.8021 80.3515 79.3401 80.37C78.7262 80.3599 78.1139 80.4339 77.5201 80.59C77.077 80.7102 76.6426 80.8605 76.2201 81.04C76.0013 81.1535 75.7645 81.2279 75.5201 81.26C75.4614 81.2583 75.404 81.2418 75.3534 81.2121C75.3027 81.1824 75.2603 81.1404 75.2301 81.09C75.1269 80.9502 75.0396 80.7993 74.9701 80.64C74.8891 80.4667 74.8255 80.2858 74.7801 80.1C74.7448 79.9524 74.7247 79.8017 74.7201 79.65C74.7201 79.47 74.8601 79.29 75.1401 79.12C75.4928 78.908 75.8686 78.7368 76.2601 78.61C76.7639 78.4309 77.2826 78.297 77.8101 78.21C78.3713 78.1109 78.9402 78.0607 79.5101 78.06C80.2602 78.0489 81.008 78.1465 81.7301 78.35C82.3069 78.5057 82.8428 78.7855 83.3001 79.17C83.6983 79.5126 84.0101 79.9443 84.2101 80.43C84.4248 80.9531 84.5303 81.5146 84.5201 82.08V87.24C84.5201 88 84.5201 88.6 84.5901 89.04C84.6153 89.3754 84.6587 89.7093 84.7201 90.04C84.7659 90.2268 84.7927 90.4178 84.8001 90.61C84.8001 90.73 84.7201 90.83 84.5601 90.91C84.3759 91.0007 84.181 91.0679 83.9801 91.11C83.7501 91.16 83.5201 91.19 83.2801 91.22C83.0401 91.25 82.8601 91.22 82.7101 91.22C82.6249 91.2255 82.5398 91.209 82.4628 91.1723C82.3857 91.1355 82.3194 91.0796 82.2701 91.01C82.1489 90.8243 82.064 90.6173 82.0201 90.4C81.9501 90.13 81.8901 89.84 81.8201 89.5C81.582 89.7937 81.3139 90.0619 81.0201 90.3C80.6343 90.6243 80.1987 90.8843 79.7301 91.07C79.1635 91.2924 78.5587 91.4011 77.9501 91.39" fill="white"/>
<path d="M89.5901 91.35C89.2465 91.3824 88.9007 91.3201 88.5901 91.17C88.502 91.123 88.429 91.0521 88.3794 90.9654C88.3299 90.8787 88.3058 90.7798 88.3101 90.68V82.31C88.3101 81.62 88.3101 81.05 88.2501 80.61C88.1901 80.17 88.1601 79.83 88.1201 79.61C88.0862 79.4217 88.0661 79.2312 88.0601 79.04C88.0654 78.9667 88.0918 78.8965 88.1362 78.838C88.1805 78.7794 88.2409 78.7349 88.3101 78.71C88.4928 78.6037 88.6923 78.5293 88.9001 78.49C89.1311 78.442 89.3649 78.4086 89.6001 78.39H90.1401C90.2191 78.3835 90.2986 78.3944 90.3729 78.4221C90.4472 78.4497 90.5145 78.4934 90.5701 78.55C90.6939 78.7133 90.7824 78.9006 90.8301 79.1C90.9254 79.4625 91.0022 79.8297 91.0601 80.2C91.2472 79.7922 91.5083 79.4226 91.8301 79.11C92.1184 78.8233 92.4575 78.5927 92.8301 78.43C93.2001 78.2724 93.5979 78.1908 94.0001 78.19C94.1427 78.1749 94.2869 78.1883 94.4242 78.2295C94.5616 78.2707 94.6893 78.3389 94.8001 78.43C94.9595 78.627 95.0381 78.8772 95.0201 79.13C95.0313 79.3232 95.0313 79.5168 95.0201 79.71C94.9879 79.9394 94.9411 80.1665 94.8801 80.39C94.8306 80.5837 94.7602 80.7715 94.6701 80.95C94.6433 81.0134 94.599 81.0679 94.5423 81.1069C94.4856 81.1458 94.4189 81.1677 94.3501 81.17C94.1944 81.1624 94.0417 81.1251 93.9001 81.06C93.6641 80.971 93.4118 80.9335 93.1601 80.95C92.7574 80.9391 92.3594 81.0394 92.0101 81.24C91.668 81.4716 91.4059 81.8035 91.2601 82.19V90.68C91.2612 90.7816 91.2337 90.8815 91.1806 90.9682C91.1276 91.0549 91.0511 91.1248 90.9601 91.17C90.6478 91.3151 90.3034 91.3771 89.9601 91.35H89.5901Z" fill="white"/>
</g>
<defs>
<clipPath id="clip0_22_7117">
<rect width="119.8" height="120.89" fill="white"/>
</clipPath>
</defs>
</svg>
